# xmcd
#
# Track frame offsets: 
#        150
#        19350
#        51975
#        76200
#        111450
#        138000
#        157260
#        175350
#        196800
#        227775
#
# Disc length: 3344 seconds
#
# Revision: 2
# Processed by: cddbd v1.5.2PL0 Copyright (c) Steve Scherf et al.
# Submitted via: ExactAudioCopy v1.0b1
#
DISCID=870d0e0a
DTITLE=New York Trio - Thou Swell [CD, Album Japan Venus Records VHCD-
DTITLE=3006)
DYEAR=2006
DGENRE=Jazz
TTITLE0=Thou Swell
TTITLE1=My Funny Valentine
TTITLE2=I Didn't Know What Time It Was
TTITLE3=Where Or When
TTITLE4=My Heart Stood Still
TTITLE5=That's For Me
TTITLE6=Have You Met Miss Jones?
TTITLE7=There's A Small Hotel
TTITLE8=With A Song In My Heart
TTITLE9=Wait Till You See Her
EXTD=YEAR: 2007
EXTT0=
EXTT1=
EXTT2=
EXTT3=
EXTT4=
EXTT5=
EXTT6=
EXTT7=
EXTT8=
EXTT9=
PLAYORDER=
